<svg xmlns="http://www.w3.org/2000/svg" width="64" height="64" viewBox="0 0 64 64"><circle cx="32" cy="32" r="30" fill="beige"/><g fill="none" stroke="green" stroke-width="2"><path d="M20,40 C15,38 15,30 20,28 C25,27 25,35 20,38"/><path d="M35,44 C30,42 30,34 35,32 C40,31 40,39 35,42"/><path d="M44,38 C40,36 42,28 44,26 C46,24 48,29 46,34"/></g><g fill="pink"><circle cx="20" cy="32" r="2"/><circle cx="28" cy="24" r="2"/><circle cx="38" cy="30" r="2"/><circle cx="32" cy="40" r="2"/><circle cx="44" cy="33" r="2"/></g><g fill="blue"><path d="M14,42 Q20,45 18,50 Q16,46 14,42"/><path d="M48,20 Q54,25 52,30 Q50,26 48,20"/></g></svg>